<?xml version="1.0" encoding="utf-8"?>
<!-- Generator: Adobe Illustrator 28.0.0, SVG Export Plug-In . SVG Version: 6.00 Build 0)  -->
<svg version="1.1" id="Шар_1" xmlns="http://www.w3.org/2000/svg" xmlns:xlink="http://www.w3.org/1999/xlink" x="0px" y="0px"
	 viewBox="0 0 500 52" style="enable-background:new 0 0 500 52;" xml:space="preserve">
<style type="text/css">
	.st0{fill:#232323;}
	.st1{fill:#4343FF;}
</style>
<g>
	<path class="st0" d="M178.6,51.1h7c0.2,0,0.4-0.2,0.4-0.4V26.9c0-7.6-6.2-13.7-13.7-13.7h-42.1c-0.2,0-0.4,0.2-0.4,0.4v37
		c0,0.2,0.2,0.4,0.4,0.4h7c0.2,0,0.4-0.2,0.4-0.4V21.5c0-0.2,0.2-0.4,0.4-0.4h15.4c0.2,0,0.4,0.2,0.4,0.4v29.1
		c0,0.2,0.2,0.4,0.4,0.4h7c0.2,0,0.4-0.2,0.4-0.4V21.5c0-0.2,0.2-0.4,0.4-0.4h9c3.8,0,6.9,3.1,6.9,6.9v22.7
		C178.2,50.9,178.4,51.1,178.6,51.1z"/>
	<path class="st0" d="M313.3,51.1c0.2,0,0.4-0.2,0.4-0.4V26.9c0-7.6-6.2-13.7-13.7-13.7h-18.1c-0.2,0-0.4,0.2-0.4,0.4v37
		c0,0.2,0.2,0.4,0.4,0.4h7c0.2,0,0.4-0.2,0.4-0.4V21.8c0-0.4,0.3-0.8,0.8-0.8h8.9c3.8,0,6.9,3.1,6.9,6.9v22.7c0,0.2,0.2,0.4,0.4,0.4
		H313.3z"/>
	<path class="st0" d="M212.5,13.2h-5.2c-7.6,0-13.7,6.2-13.7,13.7v10.4c0,7.6,6.1,13.7,13.7,13.7h5.2c7.6,0,13.7-6.2,13.7-13.7V26.9
		C226.2,19.4,220.1,13.2,212.5,13.2z M218.7,37.4c0,3.3-2.6,5.9-5.9,5.9h-5.9c-3.2,0-5.9-2.6-5.9-5.9V26.9c0-3.2,2.6-5.9,5.9-5.9
		h5.9c3.2,0,5.9,2.6,5.9,5.9V37.4z"/>
	<path class="st0" d="M256.8,21.3c0.2,0,0.4-0.2,0.4-0.4v-7.1c0-0.2-0.2-0.4-0.4-0.4H242c-0.2,0-0.4-0.2-0.4-0.4v0
		c0-2.2,1.8-4.1,4.1-4.1h11.2c0.2,0,0.4-0.2,0.4-0.4V1.2c0-0.2-0.2-0.4-0.4-0.4h-11.2c-6.3,0-11.4,5.1-11.4,11.4v38.6
		c0,0.2,0.2,0.4,0.4,0.4h6.4c0.2,0,0.4-0.2,0.4-0.4V22.1c0-0.4,0.3-0.8,0.8-0.8H256.8z"/>
	<g>
		<path class="st0" d="M273,0.7h-7.5c-0.3,0-0.5,0.2-0.5,0.4v7.2c0,0.2,0.2,0.4,0.5,0.4h7.5c0.3,0,0.5-0.2,0.5-0.4V1.2
			C273.4,0.9,273.2,0.7,273,0.7z"/>
		<path class="st0" d="M273,51.1c0.3,0,0.5-0.2,0.5-0.4V13.8c0-0.2-0.2-0.4-0.5-0.4h-7.5c-0.3,0-0.5,0.2-0.5,0.4v36.9
			c0,0.2,0.2,0.4,0.5,0.4H273z"/>
	</g>
	<path class="st0" d="M108.4,13.2H91.5c-0.2,0-0.4,0.2-0.4,0.4v7c0,0.2,0.2,0.4,0.4,0.4h16.6c3.4,0,6.2,2.8,6.2,6.2
		c0,0.4-0.4,0.8-0.8,0.8H101c-6.2,0-11.6,5.1-11.8,11.3c-0.1,6.5,5.1,11.8,11.6,11.8h20.9c0.3,0,0.4-0.2,0.4-0.4V26.9
		C122.1,19.4,116,13.2,108.4,13.2z M114.3,42.5c0,0.4-0.4,0.8-0.8,0.8h-12.6c-2,0-3.7-1.6-3.8-3.5c-0.1-2.1,1.6-3.9,3.7-3.9h12.7
		c0.4,0,0.8,0.3,0.8,0.8V42.5z"/>
	<path class="st0" d="M451.6,21.3c3.8,0,6.9,3.1,6.9,6.9v22.4c0,0.2,0.2,0.4,0.4,0.4h6.9c0.2,0,0.4-0.2,0.4-0.4V27
		c0-7.6-6.2-13.7-13.7-13.7h-10.9c-0.2,0-0.4-0.2-0.4-0.4V1.2c0-0.2-0.2-0.4-0.4-0.4h-6.9c-0.2,0-0.4,0.2-0.4,0.4v49.5
		c0,0.2,0.2,0.4,0.4,0.4h6.9c0.2,0,0.4-0.2,0.4-0.4V22.1c0-0.4,0.4-0.8,0.8-0.8H451.6z"/>
	<path class="st0" d="M425.7,20.6v-7c0-0.2-0.2-0.4-0.4-0.4h-18.6c-7.6,0-13.7,6.2-13.7,13.7v10.4c0,7.6,6.2,13.7,13.7,13.7h18.6
		c0.2,0,0.4-0.2,0.4-0.4v-7c0-0.2-0.2-0.4-0.4-0.4h-17.7c-3.8,0-6.9-3.1-6.9-6.9v-8.4c0-3.8,3.1-6.9,6.9-6.9h17.7
		C425.5,21.1,425.7,20.9,425.7,20.6z"/>
	<path class="st0" d="M371.5,13.3H366c-7.6,0-13.7,6.2-13.7,13.7v10.3c0,7.6,6.2,13.7,13.7,13.7h17c0.2,0,0.4-0.2,0.4-0.4v-7
		c0-0.2-0.2-0.4-0.4-0.4h-16.1c-3.6,0-6.5-2.7-6.8-6.2v-0.4c0-0.3,0.2-0.5,0.7-0.5H385c0,0,0.2-0.2,0.2-0.4V27
		C385.2,19.5,379.1,13.3,371.5,13.3z M377,28.2h-16.4c-0.3,0-0.4-0.2-0.4-0.5c0-3.5,2.9-6.4,6.4-6.4h4.6c3.5,0,6.4,2.8,6.4,6.4
		C377.4,28,377.2,28.2,377,28.2z"/>
	<path class="st0" d="M331.8,51.1c-0.7,0-4.3-0.1-7.3-3c-2.9-2.9-3-6.6-3-7.3l-0.1-9.8V1.1c0-0.2,0.2-0.5,0.5-0.5h7
		c0.2,0,0.4,0.2,0.4,0.5v11.3c0,0.2,0.2,0.4,0.4,0.4H344c0.3,0,0.4,0.2,0.4,0.4v7.2c0,0.2-0.2,0.4-0.4,0.4h-14.3
		c-0.3,0-0.4,0.2-0.4,0.4c0,0.8,0,1.6,0,2.4c0,3.3,0,6.5,0,9.8v5.1c0,0.2,0,0.3,0,0.5c0.2,2.3,2.2,4.1,4.6,4.1h10.5
		c0.1,0,0.2,0.1,0.2,0.2v7.3c0,0.1-0.1,0.2-0.2,0.2H331.8z"/>
	<path class="st1" d="M67.2,19.8v22.4c0,0.2-0.2,0.4-0.4,0.4h-7.6c-0.2,0-0.4-0.2-0.4-0.4l0-16.7c0-0.3-0.3-0.5-0.5-0.4
		c-2.8,1-11.7,4.3-15,9.1c-0.5,0.8-1.5,2.3-1.2,4c0.3,1.8,1.6,3.4,3.2,4c0.7,0.3,1.4,0.3,1.8,0.3c2.2,0,4.6,0.1,7.1,0.1
		c0.2,0,0.4,0.2,0.4,0.4l0,7.5c0,0.2-0.2,0.4-0.4,0.4h-7.9c-1.1,0-5.3-0.2-8.7-3.4c-0.7-0.7-2.3-2.3-3.2-4.9c-0.2-0.6-1.4-4.2,0-8.4
		c0.3-1,1.2-3.3,4.2-6c2.2-2,5.4-4,8.9-5.9c0.4-0.2,0.2-0.7-0.2-0.7H34.2c-0.2,0-0.4-0.2-0.4-0.4v-7.6c0-0.2,0.2-0.4,0.4-0.4h26.4
		C64.2,13.2,67.2,16.1,67.2,19.8z"/>
</g>
</svg>
